<svg width="157" height="237" viewBox="0 0 157 237" fill="none" xmlns="http://www.w3.org/2000/svg">
<path d="M0.167725 70.1484L51.1677 40.6484V211.148C51.1677 225.232 39.751 236.648 25.6677 236.648C11.5845 236.648 0.167725 225.232 0.167725 211.148V70.1484Z" fill="#3178C6"/>
<path d="M106.609 96.104C109.452 94.2603 111.168 91.1023 111.168 87.7137L111.168 83.4447C111.168 72.7392 105.463 62.845 96.1984 57.4814L82.6678 49.6484L128 25.6484L142.637 35.2615C151.082 40.8081 156.168 50.2331 156.168 60.3368L156.168 104.518C156.168 114.863 150.838 124.479 142.064 129.96L59.3357 181.648L59.3358 126.759L106.609 96.104Z" fill="#026056"/>
<path d="M64.8698 4.12589C74.5805 -1.39245 86.553 -1.05922 95.9417 4.99073L128 25.6484L0.167622 105.648L0.167623 58.3518C0.167623 47.5605 5.9634 37.6007 15.3456 32.269L64.8698 4.12589Z" fill="#10AB50"/>
</svg>
